<svg width="24" height="29" viewBox="0 0 24 29" fill="none" xmlns="http://www.w3.org/2000/svg">
<path d="M23.9996 19.3655V17.5899V17.5901C24.0043 17.2405 23.8892 16.8999 23.6733 16.6244C23.4574 16.349 23.1538 16.1552 22.8124 16.0751C22.5472 16.0167 22.271 16.0322 22.0141 16.1195C21.5303 14.3404 20.5109 12.7519 19.0935 11.5684C18.933 10.712 19.121 9.82733 19.6159 9.10944C19.7473 8.89147 19.7409 8.61757 19.5993 8.40602C19.4577 8.19466 19.2063 8.08361 18.9539 8.12118C17.2769 8.33729 16.3153 9.11257 15.7751 9.81974V9.81953C15.1448 9.64223 14.4968 9.53428 13.843 9.49712C13.832 9.49609 13.8211 9.49609 13.8103 9.49712C14.5998 11.6355 14.4358 14.0082 13.3598 16.0182C12.2836 18.0284 10.3977 19.485 8.17641 20.0215C5.95512 20.5579 3.6098 20.1232 1.73037 18.8268C1.71919 18.8551 1.71402 18.8852 1.71567 18.9155C1.77116 20.1115 2.06577 21.2841 2.58214 22.365C3.09849 23.4458 3.82603 24.4128 4.72228 25.2095C5.34192 25.7499 5.70053 26.5283 5.70779 27.3489V28.4082C5.70779 28.5653 5.77032 28.7158 5.8815 28.8268C5.99288 28.9377 6.14381 29 6.30137 29H9.90462C10.062 29 10.2129 28.9377 10.3243 28.8268C10.4357 28.7158 10.4982 28.5653 10.4982 28.4082V27.4969H13.3563L13.3566 28.4082C13.3566 28.5653 13.4191 28.7158 13.5303 28.8268C13.6416 28.9377 13.7926 29 13.9501 29H17.5534C17.7107 29 17.8617 28.9377 17.973 28.8268C18.0844 28.7158 18.147 28.5653 18.147 28.4082V27.5974C18.1381 26.7394 18.5068 25.9208 19.156 25.3575C20.5554 24.175 21.5606 22.5957 22.038 20.8301C22.2954 20.9164 22.5715 20.9308 22.8365 20.8714C23.1723 20.788 23.47 20.5938 23.6814 20.3205C23.8926 20.047 24.0048 19.7103 23.9998 19.3652L23.9996 19.3655ZM18.4021 16.2349C18.1659 16.2349 17.9394 16.1414 17.7725 15.9748C17.6054 15.8084 17.5116 15.5826 17.5116 15.3471C17.5116 15.1116 17.6054 14.886 17.7725 14.7194C17.9394 14.5529 18.1659 14.4593 18.4021 14.4593C18.6381 14.4593 18.8646 14.5528 19.0317 14.7194C19.1986 14.886 19.2926 15.1116 19.2926 15.3471C19.2926 15.5826 19.1986 15.8084 19.0317 15.9748C18.8646 16.1414 18.6381 16.2349 18.4021 16.2349ZM7.07304 4.24749C7.08691 3.21647 7.47159 2.2245 8.15708 1.45234C8.84239 0.680181 9.78296 0.178778 10.8078 0.0394907C11.8326 -0.0998337 12.8736 0.132168 13.7413 0.69318C14.609 1.25419 15.2459 2.1073 15.5363 3.097C15.8266 4.0867 15.751 5.14726 15.3231 6.08618C14.8953 7.02495 14.1438 7.77956 13.2051 8.21259C11.9163 5.9879 9.63617 4.51355 7.07281 4.24749H7.07304ZM0 12.1952C0 13.8481 0.658384 15.4331 1.83062 16.6019C3.00285 17.7705 4.59289 18.4271 6.25067 18.4271C7.90845 18.4271 9.49844 17.7705 10.6707 16.6019C11.843 15.4332 12.5016 13.8482 12.5016 12.1952C12.5016 10.5425 11.843 8.95753 10.6707 7.78881C9.4985 6.62008 7.90845 5.96354 6.25067 5.96354C4.59332 5.96498 3.00433 6.6222 1.83253 7.79045C0.660504 8.9587 0.00148401 10.5429 5.29723e-05 12.1952L0 12.1952ZM6.73171 8.54966V8.94617C7.04517 8.95711 7.35676 9.00169 7.66067 9.0793C7.93292 9.16723 8.10352 9.43618 8.06646 9.71914C8.0294 10.0021 7.79503 10.2182 7.50931 10.2333C7.45403 10.2335 7.39896 10.2255 7.34596 10.2098C7.05694 10.1247 6.75695 10.0818 6.45548 10.0824C5.7936 10.0824 5.5799 10.3784 5.5799 10.6507C5.5799 10.985 5.936 11.198 6.80264 11.5236C8.01362 11.9496 8.50346 12.509 8.50346 13.4203C8.50346 14.3318 7.84465 15.0922 6.67819 15.2994V15.8379C6.67819 16.1124 6.4548 16.3349 6.17944 16.3349C5.90408 16.3349 5.6809 16.1124 5.6809 15.8379V15.3704C5.26744 15.352 4.85831 15.2794 4.46393 15.1543C4.16849 15.0581 3.99768 14.751 4.07222 14.45V14.4028C4.13868 14.1487 4.36973 13.972 4.63308 13.9736C4.69975 13.9734 4.766 13.9846 4.82894 14.0063C5.18732 14.1336 5.56454 14.2007 5.94509 14.2044C6.53866 14.2044 6.9217 13.9794 6.9217 13.574C6.9217 13.1686 6.5952 12.9436 5.84137 12.6862C4.75214 12.3223 4.01012 11.8133 4.01012 10.828C4.01012 9.94018 4.64242 9.23301 5.7316 9.02001L5.73119 8.54961C5.73119 8.27509 5.95458 8.05258 6.22994 8.05258C6.5053 8.05258 6.72849 8.27509 6.72849 8.54961L6.73171 8.54966Z" fill="#9B81F6"/>
</svg>
