<svg width="11" height="11" viewBox="0 0 11 11" fill="none" xmlns="http://www.w3.org/2000/svg">
<path d="M10 5.90541C9.92118 6.75832 9.60108 7.57114 9.07717 8.24877C8.55325 8.9264 7.84718 9.4408 7.04158 9.73179C6.23597 10.0228 5.36416 10.0783 4.52814 9.89191C3.69213 9.7055 2.92649 9.28485 2.32082 8.67918C1.71515 8.07351 1.2945 7.30787 1.10809 6.47186C0.921679 5.63584 0.977217 4.76403 1.26821 3.95842C1.5592 3.15282 2.0736 2.44675 2.75123 1.92283C3.42886 1.39892 4.24168 1.07882 5.09459 1C4.59524 1.67557 4.35495 2.50792 4.41742 3.34568C4.4799 4.18344 4.84099 4.97095 5.43502 5.56498C6.02905 6.15901 6.81656 6.5201 7.65432 6.58258C8.49208 6.64505 9.32443 6.40476 10 5.90541Z" stroke="#A8E0FF" stroke-linecap="round" stroke-linejoin="round"/>
</svg>
