<svg width="20" height="22" viewBox="0 0 20 22" fill="none" xmlns="http://www.w3.org/2000/svg">
<path d="M19.9997 14.691V13.3441V13.3442C20.0036 13.079 19.9077 12.8206 19.7277 12.6116C19.5478 12.4027 19.2949 12.2557 19.0104 12.1949C18.7894 12.1506 18.5592 12.1623 18.3451 12.2286C17.9419 10.8789 17.0924 9.67389 15.9112 8.776C15.7775 8.12633 15.9342 7.45521 16.3465 6.91061C16.4561 6.74525 16.4508 6.53746 16.3327 6.37698C16.2147 6.21664 16.0053 6.1324 15.795 6.1609C14.3974 6.32484 13.5961 6.91299 13.1459 7.44946V7.4493C12.6207 7.31479 12.0807 7.2329 11.5358 7.20471C11.5267 7.20393 11.5176 7.20393 11.5086 7.20471C12.1665 8.82695 12.0298 10.6269 11.1332 12.1517C10.2363 13.6767 8.66475 14.7817 6.81367 15.1887C4.9626 15.5956 3.00817 15.2659 1.44198 14.2824C1.43266 14.3038 1.42835 14.3267 1.42973 14.3497C1.47597 15.257 1.72148 16.1465 2.15178 16.9666C2.58207 17.7864 3.18836 18.5201 3.93524 19.1245C4.4516 19.5344 4.75044 20.1249 4.75649 20.7475V21.5511C4.75649 21.6702 4.8086 21.7844 4.90125 21.8686C4.99407 21.9527 5.11984 22 5.25114 22H8.25385C8.38497 22 8.51075 21.9527 8.60357 21.8686C8.69639 21.7844 8.74849 21.6702 8.74849 21.5511V20.8597H11.1303L11.1305 21.5511C11.1305 21.6702 11.1826 21.7844 11.2752 21.8686C11.368 21.9527 11.4938 22 11.6251 22H14.6278C14.7589 22 14.8847 21.9527 14.9775 21.8686C15.0704 21.7844 15.1225 21.6702 15.1225 21.5511V20.936C15.115 20.2851 15.4223 19.6641 15.9634 19.2367C17.1295 18.3396 17.9671 17.1416 18.365 15.8022C18.5795 15.8676 18.8096 15.8786 19.0304 15.8335C19.3103 15.7702 19.5584 15.6229 19.7345 15.4155C19.9105 15.2081 20.004 14.9527 19.9999 14.6909L19.9997 14.691ZM15.3351 12.3161C15.1382 12.3161 14.9495 12.2452 14.8104 12.1188C14.6712 11.9926 14.593 11.8213 14.593 11.6426C14.593 11.464 14.6712 11.2928 14.8104 11.1665C14.9495 11.0401 15.1382 10.9692 15.3351 10.9692C15.5318 10.9692 15.7205 11.0401 15.8598 11.1665C15.9988 11.2928 16.0771 11.464 16.0771 11.6426C16.0771 11.8213 15.9988 11.9926 15.8598 12.1188C15.7205 12.2452 15.5318 12.3161 15.3351 12.3161ZM5.8942 3.22224C5.90576 2.44008 6.22632 1.68755 6.79757 1.10177C7.36866 0.516 8.15246 0.135625 9.00649 0.0299585C9.86052 -0.0757359 10.728 0.100265 11.4511 0.525861C12.1742 0.951452 12.7049 1.59864 12.9469 2.34945C13.1888 3.10026 13.1258 3.90482 12.7692 4.6171C12.4128 5.32927 11.7865 5.90174 11.0042 6.23024C9.93025 4.54254 8.03014 3.42407 5.89401 3.22224H5.8942ZM0 9.25155C0 10.5055 0.548654 11.7079 1.52551 12.5945C2.50238 13.4811 3.82741 13.9792 5.20889 13.9792C6.59038 13.9792 7.91537 13.4811 8.89227 12.5945C9.86913 11.7079 10.418 10.5055 10.418 9.25155C10.418 7.99779 9.86913 6.79537 8.89227 5.90875C7.91541 5.02213 6.59038 4.52407 5.20889 4.52407C3.82776 4.52516 2.50361 5.02373 1.5271 5.90999C0.55042 6.79625 0.00123668 7.99807 4.41436e-05 9.25151L0 9.25155ZM5.60976 6.48595V6.78675C5.87098 6.79505 6.13063 6.82887 6.38389 6.88774C6.61077 6.95445 6.75294 7.15848 6.72205 7.37314C6.69117 7.58782 6.49586 7.75177 6.25776 7.7632C6.21169 7.76336 6.1658 7.75725 6.12163 7.74535C5.88078 7.68083 5.63079 7.64826 5.37957 7.64873C4.828 7.64873 4.64991 7.87328 4.64991 8.07982C4.64991 8.33348 4.94667 8.49507 5.66887 8.74203C6.67802 9.06523 7.08621 9.48956 7.08621 10.1809C7.08621 10.8724 6.53721 11.4493 5.56516 11.6065V12.015C5.56516 12.2232 5.379 12.392 5.14953 12.392C4.92007 12.392 4.73408 12.2232 4.73408 12.015V11.6603C4.38954 11.6464 4.0486 11.5912 3.71994 11.4964C3.47374 11.4234 3.3314 11.1904 3.39352 10.9621V10.9262C3.4489 10.7335 3.64144 10.5994 3.8609 10.6007C3.91645 10.6005 3.97166 10.609 4.02411 10.6254C4.32276 10.722 4.63712 10.7729 4.95424 10.7758C5.44888 10.7758 5.76808 10.6051 5.76808 10.2975C5.76808 9.98998 5.496 9.8193 4.86781 9.62405C3.96011 9.34799 3.34176 8.96183 3.34176 8.21431C3.34176 7.54082 3.86869 7.00436 4.77634 6.84277L4.77599 6.48591C4.77599 6.27766 4.96215 6.10886 5.19162 6.10886C5.42108 6.10886 5.60707 6.27766 5.60707 6.48591L5.60976 6.48595Z" fill="#9B81F6"/>
</svg>
