<svg width="35" height="21" viewBox="0 0 35 21" fill="none" xmlns="http://www.w3.org/2000/svg">
<path d="M0 10C0 4.47715 4.47715 0 10 0H25C30.5228 0 35 4.47715 35 10C35 15.5228 30.5228 20 25 20H10C4.47715 20 0 15.5228 0 10Z" fill="#424444"/>
<g filter="url(#filter0_d_59_563)">
<circle cx="25" cy="10" r="8" fill="#424444"/>
</g>
<path d="M29.5 10.395C29.4213 11.2461 29.1019 12.0572 28.5791 12.7334C28.0563 13.4096 27.3517 13.9229 26.5478 14.2133C25.7439 14.5036 24.8739 14.5591 24.0397 14.373C23.2055 14.187 22.4414 13.7673 21.8371 13.1629C21.2327 12.5585 20.8129 11.7945 20.6269 10.9602C20.4409 10.126 20.4963 9.25604 20.7867 8.45215C21.0771 7.64825 21.5904 6.94368 22.2666 6.42088C22.9427 5.89807 23.7538 5.57865 24.605 5.5C24.1067 6.17413 23.8669 7.00472 23.9292 7.84071C23.9916 8.67669 24.3519 9.46253 24.9447 10.0553C25.5374 10.6481 26.3233 11.0084 27.1592 11.0707C27.9952 11.1331 28.8258 10.8933 29.5 10.395Z" stroke="#A8E0FF" stroke-linecap="round" stroke-linejoin="round"/>
<defs>
<filter id="filter0_d_59_563" x="15" y="1" width="20" height="20" filterUnits="userSpaceOnUse" color-interpolation-filters="sRGB">
<feFlood flood-opacity="0" result="BackgroundImageFix"/>
<feColorMatrix in="SourceAlpha" type="matrix" values="0 0 0 0 0 0 0 0 0 0 0 0 0 0 0 0 0 0 127 0" result="hardAlpha"/>
<feOffset dy="1"/>
<feGaussianBlur stdDeviation="1"/>
<feColorMatrix type="matrix" values="0 0 0 0 0 0 0 0 0 0 0 0 0 0 0 0 0 0 0.15 0"/>
<feBlend mode="normal" in2="BackgroundImageFix" result="effect1_dropShadow_59_563"/>
<feBlend mode="normal" in="SourceGraphic" in2="effect1_dropShadow_59_563" result="shape"/>
</filter>
</defs>
</svg>
